<?xml version="1.0" standalone="no"?>
<!DOCTYPE svg PUBLIC "-//W3C//DTD SVG 20010904//EN"
 "http://www.w3.org/TR/2001/REC-SVG-20010904/DTD/svg10.dtd">
<svg version="1.0" xmlns="http://www.w3.org/2000/svg"
 width="512.000000pt" height="512.000000pt" viewBox="0 0 512.000000 512.000000"
 preserveAspectRatio="xMidYMid meet">

<g transform="translate(0.000000,512.000000) scale(0.100000,-0.100000)"
fill="#000000" stroke="none">
<path d="M2055 4103 c-145 -18 -367 -88 -505 -159 -278 -145 -496 -355 -656
-633 -427 -746 -158 -1716 592 -2135 559 -312 1227 -266 1739 119 78 59 227
209 294 298 39 51 42 59 30 76 -8 10 -28 37 -46 61 -18 23 -42 68 -55 99 -21
52 -23 75 -26 313 -2 168 0 277 8 313 35 167 170 310 329 348 28 6 51 16 51
20 0 5 -9 45 -21 90 -69 274 -210 529 -402 725 -76 78 -251 214 -352 274 -135
81 -347 155 -520 183 -82 14 -376 19 -460 8z m-470 -882 c3 -6 62 -234 131
-508 69 -274 130 -515 135 -537 6 -21 14 -35 19 -30 6 7 112 436 239 969 l26
110 152 3 152 3 11 -43 c6 -24 20 -74 30 -113 11 -38 67 -261 125 -495 59
-234 110 -429 115 -434 10 -10 18 19 56 185 14 63 65 276 114 474 48 198 91
375 95 393 l7 32 149 0 c116 0 149 -3 149 -13 0 -24 -401 -1642 -409 -1650 -4
-4 -77 -6 -162 -5 l-154 3 -41 155 c-22 85 -82 320 -134 523 -51 202 -97 364
-100 360 -4 -5 -62 -235 -130 -513 -68 -278 -128 -511 -133 -517 -10 -14 -293
-19 -313 -5 -6 4 -41 124 -77 267 -36 143 -107 422 -157 620 -50 198 -114 446
-141 552 -27 106 -49 199 -49 208 0 13 21 15 144 15 80 0 147 -4 151 -9z"/>
<path d="M3835 2673 c-145 -60 -252 -188 -284 -341 -14 -65 -15 -455 -1 -536
13 -81 43 -138 111 -210 66 -71 139 -112 225 -126 71 -12 654 -13 672 -2 9 7
12 39 10 128 l-3 119 -315 5 c-292 5 -317 6 -349 25 -54 32 -72 65 -78 139 -4
50 -3 67 8 70 8 3 183 7 389 10 206 3 379 6 383 6 5 0 7 93 5 208 l-3 207 -37
75 c-41 84 -109 156 -193 206 l-50 29 -225 2 c-190 2 -231 0 -265 -14z m396
-276 c56 -30 97 -95 106 -165 l6 -52 -258 0 -257 0 7 48 c8 57 35 121 61 144
45 39 77 48 185 48 92 0 112 -3 150 -23z"/>
</g>
</svg>
